<?xml version="1.0" encoding="UTF-8" standalone="no"?><svg xmlns="http://www.w3.org/2000/svg" xmlns:xlink="http://www.w3.org/1999/xlink" clip-rule="evenodd" stroke-miterlimit="4.00" viewBox="0 0 1024 768"><desc>SVG generated by Keynote</desc><defs></defs><g transform="matrix(1.00, 0.00, -0.00, -1.00, 0.0, 768.0)"><path d="M 0.0 768.0 L 1024.0 768.0 L 1024.0 0.0 L 0.0 0.0 Z M 0.0 768.0 " fill="#01A79D"></path><text xml:space="preserve" font-family="Helvetica-Light" font-size="80.0" fill="#FFFFFF" transform="matrix(1.00, 0.00, -0.00, -1.00, 204.0, 528.0)">P</text><text xml:space="preserve" font-family="Helvetica-Light" font-size="80.0" fill="#FFFFFF" transform="matrix(1.00, 0.00, -0.00, -1.00, 254.7, 528.0)">R</text><text xml:space="preserve" font-family="Helvetica-Light" font-size="80.0" fill="#FFFFFF" transform="matrix(1.00, 0.00, -0.00, -1.00, 309.8, 528.0)">O</text><text xml:space="preserve" font-family="Helvetica-Light" font-size="80.0" fill="#FFFFFF" transform="matrix(1.00, 0.00, -0.00, -1.00, 373.9, 528.0)">F</text><text xml:space="preserve" font-family="Helvetica-Light" font-size="80.0" fill="#FFFFFF" transform="matrix(1.00, 0.00, -0.00, -1.00, 420.2, 528.0)">E</text><text xml:space="preserve" font-family="Helvetica-Light" font-size="80.0" fill="#FFFFFF" transform="matrix(1.00, 0.00, -0.00, -1.00, 470.8, 528.0)">S</text><text xml:space="preserve" font-family="Helvetica-Light" font-size="80.0" fill="#FFFFFF" transform="matrix(1.00, 0.00, -0.00, -1.00, 521.5, 528.0)">S</text><text xml:space="preserve" font-family="Helvetica-Light" font-size="80.0" fill="#FFFFFF" transform="matrix(1.00, 0.00, -0.00, -1.00, 572.2, 528.0)">I</text><text xml:space="preserve" font-family="Helvetica-Light" font-size="80.0" fill="#FFFFFF" transform="matrix(1.00, 0.00, -0.00, -1.00, 596.2, 528.0)">O</text><text xml:space="preserve" font-family="Helvetica-Light" font-size="80.0" fill="#FFFFFF" transform="matrix(1.00, 0.00, -0.00, -1.00, 660.3, 528.0)">N</text><text xml:space="preserve" font-family="Helvetica-Light" font-size="80.0" fill="#FFFFFF" transform="matrix(1.00, 0.00, -0.00, -1.00, 719.8, 528.0)">A</text><text xml:space="preserve" font-family="Helvetica-Light" font-size="80.0" fill="#FFFFFF" transform="matrix(1.00, 0.00, -0.00, -1.00, 775.0, 528.0)">L</text><text xml:space="preserve" font-family="Helvetica" font-size="135.0" fill="#FEFFFE" transform="matrix(1.00, 0.00, -0.00, -1.00, 193.0, 411.0)">C</text><text xml:space="preserve" font-family="Helvetica" font-size="135.0" fill="#FEFFFE" transform="matrix(1.00, 0.00, -0.00, -1.00, 290.5, 411.0)">O</text><text xml:space="preserve" font-family="Helvetica" font-size="135.0" fill="#FEFFFE" transform="matrix(1.00, 0.00, -0.00, -1.00, 395.5, 411.0)">O</text><text xml:space="preserve" font-family="Helvetica" font-size="135.0" fill="#FEFFFE" transform="matrix(1.00, 0.00, -0.00, -1.00, 500.5, 411.0)">K</text><text xml:space="preserve" font-family="Helvetica" font-size="135.0" fill="#FEFFFE" transform="matrix(1.00, 0.00, -0.00, -1.00, 590.5, 411.0)">I</text><text xml:space="preserve" font-family="Helvetica" font-size="135.0" fill="#FEFFFE" transform="matrix(1.00, 0.00, -0.00, -1.00, 628.0, 411.0)">N</text><text xml:space="preserve" font-family="Helvetica" font-size="135.0" fill="#FEFFFE" transform="matrix(1.00, 0.00, -0.00, -1.00, 725.5, 411.0)">G</text><text xml:space="preserve" font-family="Helvetica-Light" font-size="79.0" fill="#FEFFFE" transform="matrix(1.00, 0.00, -0.00, -1.00, 200.0, 172.0)">M</text><text xml:space="preserve" font-family="Helvetica-Light" font-size="79.0" fill="#FEFFFE" transform="matrix(1.00, 0.00, -0.00, -1.00, 265.8, 172.0)"> </text><text xml:space="preserve" font-family="Helvetica-Light" font-size="79.0" fill="#FEFFFE" transform="matrix(1.00, 0.00, -0.00, -1.00, 287.8, 172.0)"> </text><text xml:space="preserve" font-family="Helvetica-Light" font-size="79.0" fill="#FEFFFE" transform="matrix(1.00, 0.00, -0.00, -1.00, 309.7, 172.0)"> </text><text xml:space="preserve" font-family="Helvetica-Light" font-size="79.0" fill="#FEFFFE" transform="matrix(1.00, 0.00, -0.00, -1.00, 331.7, 172.0)"> </text><text xml:space="preserve" font-family="Helvetica-Light" font-size="79.0" fill="#FEFFFE" transform="matrix(1.00, 0.00, -0.00, -1.00, 353.7, 172.0)">E</text><text xml:space="preserve" font-family="Helvetica-Light" font-size="79.0" fill="#FEFFFE" transform="matrix(1.00, 0.00, -0.00, -1.00, 401.9, 172.0)"> </text><text xml:space="preserve" font-family="Helvetica-Light" font-size="79.0" fill="#FEFFFE" transform="matrix(1.00, 0.00, -0.00, -1.00, 423.9, 172.0)"> </text><text xml:space="preserve" font-family="Helvetica-Light" font-size="79.0" fill="#FEFFFE" transform="matrix(1.00, 0.00, -0.00, -1.00, 445.8, 172.0)"> </text><text xml:space="preserve" font-family="Helvetica-Light" font-size="79.0" fill="#FEFFFE" transform="matrix(1.00, 0.00, -0.00, -1.00, 467.8, 172.0)"> </text><text xml:space="preserve" font-family="Helvetica-Light" font-size="79.0" fill="#FEFFFE" transform="matrix(1.00, 0.00, -0.00, -1.00, 489.8, 172.0)">A</text><text xml:space="preserve" font-family="Helvetica-Light" font-size="79.0" fill="#FEFFFE" transform="matrix(1.00, 0.00, -0.00, -1.00, 542.5, 172.0)"> </text><text xml:space="preserve" font-family="Helvetica-Light" font-size="79.0" fill="#FEFFFE" transform="matrix(1.00, 0.00, -0.00, -1.00, 564.4, 172.0)"> </text><text xml:space="preserve" font-family="Helvetica-Light" font-size="79.0" fill="#FEFFFE" transform="matrix(1.00, 0.00, -0.00, -1.00, 586.4, 172.0)"> </text><text xml:space="preserve" font-family="Helvetica-Light" font-size="79.0" fill="#FEFFFE" transform="matrix(1.00, 0.00, -0.00, -1.00, 608.4, 172.0)"> </text><text xml:space="preserve" font-family="Helvetica-Light" font-size="79.0" fill="#FEFFFE" transform="matrix(1.00, 0.00, -0.00, -1.00, 630.3, 172.0)">N</text><text xml:space="preserve" font-family="Helvetica-Light" font-size="79.0" fill="#FEFFFE" transform="matrix(1.00, 0.00, -0.00, -1.00, 687.4, 172.0)"> </text><text xml:space="preserve" font-family="Helvetica-Light" font-size="79.0" fill="#FEFFFE" transform="matrix(1.00, 0.00, -0.00, -1.00, 709.3, 172.0)"> </text><text xml:space="preserve" font-family="Helvetica-Light" font-size="79.0" fill="#FEFFFE" transform="matrix(1.00, 0.00, -0.00, -1.00, 731.3, 172.0)"> </text><text xml:space="preserve" font-family="Helvetica-Light" font-size="79.0" fill="#FEFFFE" transform="matrix(1.00, 0.00, -0.00, -1.00, 753.2, 172.0)"> </text><text xml:space="preserve" font-family="Helvetica-Light" font-size="79.0" fill="#FEFFFE" transform="matrix(1.00, 0.00, -0.00, -1.00, 775.2, 172.0)">S</text><path d="M 0.0 0.0 L 796.2 0.0 " fill="none" stroke="#FEFFFE" stroke-width="8.00" transform="matrix(1.00, 0.00, 0.00, -1.00, 113.9, 461.4)"></path><text xml:space="preserve" font-family="Helvetica" font-size="114.0" fill="#FEFFFE" transform="matrix(1.00, 0.00, -0.00, -1.00, 191.0, 313.0)">S</text><text xml:space="preserve" font-family="Helvetica" font-size="114.0" fill="#FEFFFE" transform="matrix(1.00, 0.00, -0.00, -1.00, 267.0, 313.0)">O</text><text xml:space="preserve" font-family="Helvetica" font-size="114.0" fill="#FEFFFE" transform="matrix(1.00, 0.00, -0.00, -1.00, 355.7, 313.0)">F</text><text xml:space="preserve" font-family="Helvetica" font-size="114.0" fill="#FEFFFE" transform="matrix(1.00, 0.00, -0.00, -1.00, 425.3, 313.0)">T</text><text xml:space="preserve" font-family="Helvetica" font-size="114.0" fill="#FEFFFE" transform="matrix(1.00, 0.00, -0.00, -1.00, 494.9, 313.0)">W</text><text xml:space="preserve" font-family="Helvetica" font-size="114.0" fill="#FEFFFE" transform="matrix(1.00, 0.00, -0.00, -1.00, 598.3, 313.0)">A</text><text xml:space="preserve" font-family="Helvetica" font-size="114.0" fill="#FEFFFE" transform="matrix(1.00, 0.00, -0.00, -1.00, 674.4, 313.0)">R</text><text xml:space="preserve" font-family="Helvetica" font-size="114.0" fill="#FEFFFE" transform="matrix(1.00, 0.00, -0.00, -1.00, 756.7, 313.0)">E</text><text xml:space="preserve" font-family="Helvetica" font-size="85.0" fill="#FEFFFE" transform="matrix(1.00, 0.00, -0.00, -1.00, 191.0, 242.0)">D</text><text xml:space="preserve" font-family="Helvetica" font-size="85.0" fill="#FEFFFE" transform="matrix(1.00, 0.00, -0.00, -1.00, 252.4, 242.0)">E</text><text xml:space="preserve" font-family="Helvetica" font-size="85.0" fill="#FEFFFE" transform="matrix(1.00, 0.00, -0.00, -1.00, 309.1, 242.0)">V</text><text xml:space="preserve" font-family="Helvetica" font-size="85.0" fill="#FEFFFE" transform="matrix(1.00, 0.00, -0.00, -1.00, 365.8, 242.0)">E</text><text xml:space="preserve" font-family="Helvetica" font-size="85.0" fill="#FEFFFE" transform="matrix(1.00, 0.00, -0.00, -1.00, 422.5, 242.0)">L</text><text xml:space="preserve" font-family="Helvetica" font-size="85.0" fill="#FEFFFE" transform="matrix(1.00, 0.00, -0.00, -1.00, 469.8, 242.0)">O</text><text xml:space="preserve" font-family="Helvetica" font-size="85.0" fill="#FEFFFE" transform="matrix(1.00, 0.00, -0.00, -1.00, 535.9, 242.0)">P</text><text xml:space="preserve" font-family="Helvetica" font-size="85.0" fill="#FEFFFE" transform="matrix(1.00, 0.00, -0.00, -1.00, 592.6, 242.0)">M</text><text xml:space="preserve" font-family="Helvetica" font-size="85.0" fill="#FEFFFE" transform="matrix(1.00, 0.00, -0.00, -1.00, 663.4, 242.0)">E</text><text xml:space="preserve" font-family="Helvetica" font-size="85.0" fill="#FEFFFE" transform="matrix(1.00, 0.00, -0.00, -1.00, 720.1, 242.0)">N</text><text xml:space="preserve" font-family="Helvetica" font-size="85.0" fill="#FEFFFE" transform="matrix(1.00, 0.00, -0.00, -1.00, 781.5, 242.0)">T</text><text xml:space="preserve" font-family="Helvetica-Light" font-size="40.0" fill="#FEFFFE" transform="matrix(1.00, 0.00, -0.00, -1.00, 16.0, 20.0)">@</text><text xml:space="preserve" font-family="Helvetica-Light" font-size="40.0" fill="#FEFFFE" transform="matrix(1.00, 0.00, -0.00, -1.00, 48.0, 20.0)">b</text><text xml:space="preserve" font-family="Helvetica-Light" font-size="40.0" fill="#FEFFFE" transform="matrix(1.00, 0.00, -0.00, -1.00, 72.4, 20.0)">u</text><text xml:space="preserve" font-family="Helvetica-Light" font-size="40.0" fill="#FEFFFE" transform="matrix(1.00, 0.00, -0.00, -1.00, 94.7, 20.0)">r</text><text xml:space="preserve" font-family="Helvetica-Light" font-size="40.0" fill="#FEFFFE" transform="matrix(1.00, 0.00, -0.00, -1.00, 108.0, 20.0)">i</text><text xml:space="preserve" font-family="Helvetica-Light" font-size="40.0" fill="#FEFFFE" transform="matrix(1.00, 0.00, -0.00, -1.00, 116.9, 20.0)">t</text><text xml:space="preserve" font-family="Helvetica-Light" font-size="40.0" fill="#FEFFFE" transform="matrix(1.00, 0.00, -0.00, -1.00, 128.0, 20.0)">i</text><text xml:space="preserve" font-family="Helvetica-Light" font-size="40.0" fill="#FEFFFE" transform="matrix(1.00, 0.00, -0.00, -1.00, 136.9, 20.0)">c</text><text xml:space="preserve" font-family="Helvetica-Light" font-size="40.0" fill="#FEFFFE" transform="matrix(1.00, 0.00, -0.00, -1.00, 159.1, 20.0)">a</text><g><clipPath id="clip-272"><path d="M 15.5 14.5 L 181.8 14.5 L 181.8 18.5 L 15.5 18.5 Z M 15.5 14.5 "></path></clipPath><g clip-path="url(#clip-272)"><path d="M 4.5 45.8 L 169.9 45.8 " fill="none" stroke="#FEFFFE" stroke-width="2.00" stroke-miterlimit="0.00" transform="matrix(1.00, 0.00, 0.00, -1.00, 12.0, 62.3)"></path></g></g><text xml:space="preserve" font-family="Helvetica-Light" font-size="40.0" fill="#FEFFFE" transform="matrix(1.00, 0.00, -0.00, -1.00, 738.0, 20.0)">@</text><text xml:space="preserve" font-family="Helvetica-Light" font-size="40.0" fill="#FEFFFE" transform="matrix(1.00, 0.00, -0.00, -1.00, 770.0, 20.0)">p</text><text xml:space="preserve" font-family="Helvetica-Light" font-size="40.0" fill="#FEFFFE" transform="matrix(1.00, 0.00, -0.00, -1.00, 794.4, 20.0)">a</text><text xml:space="preserve" font-family="Helvetica-Light" font-size="40.0" fill="#FEFFFE" transform="matrix(1.00, 0.00, -0.00, -1.00, 816.7, 20.0)">t</text><text xml:space="preserve" font-family="Helvetica-Light" font-size="40.0" fill="#FEFFFE" transform="matrix(1.00, 0.00, -0.00, -1.00, 827.8, 20.0)">r</text><text xml:space="preserve" font-family="Helvetica-Light" font-size="40.0" fill="#FEFFFE" transform="matrix(1.00, 0.00, -0.00, -1.00, 841.1, 20.0)">i</text><text xml:space="preserve" font-family="Helvetica-Light" font-size="40.0" fill="#FEFFFE" transform="matrix(1.00, 0.00, -0.00, -1.00, 850.0, 20.0)">c</text><text xml:space="preserve" font-family="Helvetica-Light" font-size="40.0" fill="#FEFFFE" transform="matrix(1.00, 0.00, -0.00, -1.00, 872.2, 20.0)">i</text><text xml:space="preserve" font-family="Helvetica-Light" font-size="40.0" fill="#FEFFFE" transform="matrix(1.00, 0.00, -0.00, -1.00, 881.1, 20.0)">a</text><text xml:space="preserve" font-family="Helvetica-Light" font-size="40.0" fill="#FEFFFE" transform="matrix(1.00, 0.00, -0.00, -1.00, 903.4, 20.0)">r</text><text xml:space="preserve" font-family="Helvetica-Light" font-size="40.0" fill="#FEFFFE" transform="matrix(1.00, 0.00, -0.00, -1.00, 916.0, 20.0)">e</text><text xml:space="preserve" font-family="Helvetica-Light" font-size="40.0" fill="#FEFFFE" transform="matrix(1.00, 0.00, -0.00, -1.00, 938.2, 20.0)">a</text><text xml:space="preserve" font-family="Helvetica-Light" font-size="40.0" fill="#FEFFFE" transform="matrix(1.00, 0.00, -0.00, -1.00, 960.4, 20.0)">l</text><text xml:space="preserve" font-family="Helvetica-Light" font-size="40.0" fill="#FEFFFE" transform="matrix(1.00, 0.00, -0.00, -1.00, 969.3, 20.0)">i</text><text xml:space="preserve" font-family="Helvetica-Light" font-size="40.0" fill="#FEFFFE" transform="matrix(1.00, 0.00, -0.00, -1.00, 978.2, 20.0)">n</text><text xml:space="preserve" font-family="Helvetica-Light" font-size="40.0" fill="#FEFFFE" transform="matrix(1.00, 0.00, -0.00, -1.00, 1000.4, 20.0)">i</text><g><clipPath id="clip-273"><path d="M 737.3 14.5 L 1009.6 14.5 L 1009.6 18.5 L 737.3 18.5 Z M 737.3 14.5 "></path></clipPath><g clip-path="url(#clip-273)"><path d="M 4.5 45.8 L 275.8 45.8 " fill="none" stroke="#FEFFFE" stroke-width="2.00" stroke-miterlimit="0.00" transform="matrix(1.00, 0.00, 0.00, -1.00, 733.8, 62.3)"></path></g></g></g></svg>