<?xml version="1.0" encoding="UTF-8" standalone="no"?><svg xmlns="http://www.w3.org/2000/svg" xmlns:xlink="http://www.w3.org/1999/xlink" clip-rule="evenodd" stroke-miterlimit="4.00" viewBox="0 0 572 304"><desc>SVG generated by Keynote</desc><defs></defs><g transform="matrix(1.00, 0.00, -0.00, -1.00, 0.0, 304.0)"><text xml:space="preserve" font-family="GothamBold" font-weight="bold" font-size="100.0" fill="#FEFFFE" transform="matrix(1.00, 0.00, -0.00, -1.00, 20.0, 231.0)">C</text><text xml:space="preserve" font-family="GothamBold" font-weight="bold" font-size="100.0" fill="#FEFFFE" transform="matrix(1.00, 0.00, -0.00, -1.00, 96.1, 231.0)">O</text><text xml:space="preserve" font-family="GothamBold" font-weight="bold" font-size="100.0" fill="#FEFFFE" transform="matrix(1.00, 0.00, -0.00, -1.00, 183.3, 231.0)">M</text><text xml:space="preserve" font-family="GothamBold" font-weight="bold" font-size="100.0" fill="#FEFFFE" transform="matrix(1.00, 0.00, -0.00, -1.00, 272.4, 231.0)">P</text><text xml:space="preserve" font-family="GothamBold" font-weight="bold" font-size="100.0" fill="#FEFFFE" transform="matrix(1.00, 0.00, -0.00, -1.00, 341.4, 231.0)">L</text><text xml:space="preserve" font-family="GothamBold" font-weight="bold" font-size="100.0" fill="#FEFFFE" transform="matrix(1.00, 0.00, -0.00, -1.00, 405.6, 231.0)">E</text><text xml:space="preserve" font-family="GothamBold" font-weight="bold" font-size="100.0" fill="#FEFFFE" transform="matrix(1.00, 0.00, -0.00, -1.00, 474.8, 231.0)">X</text><text xml:space="preserve" font-family="GothamBold" font-weight="bold" font-size="100.0" fill="#FEFFFE" transform="matrix(1.00, 0.00, -0.00, -1.00, 550.3, 231.0)"> </text><text xml:space="preserve" font-family="GothamBold" font-weight="bold" font-size="100.0" fill="#FEFFFE" transform="matrix(1.00, 0.00, -0.00, -1.00, 132.0, 117.0)">T</text><text xml:space="preserve" font-family="GothamBold" font-weight="bold" font-size="100.0" fill="#FEFFFE" transform="matrix(1.00, 0.00, -0.00, -1.00, 199.1, 117.0)">E</text><text xml:space="preserve" font-family="GothamBold" font-weight="bold" font-size="100.0" fill="#FEFFFE" transform="matrix(1.00, 0.00, -0.00, -1.00, 268.3, 117.0)">A</text><text xml:space="preserve" font-family="GothamBold" font-weight="bold" font-size="100.0" fill="#FEFFFE" transform="matrix(1.00, 0.00, -0.00, -1.00, 349.6, 117.0)">M</text><text xml:space="preserve" font-family="GothamBold" font-weight="bold" font-size="100.0" fill="#FEFFFE" transform="matrix(1.00, 0.00, -0.00, -1.00, 438.6, 117.0)"> </text><text xml:space="preserve" font-family="GothamBold" font-weight="bold" font-size="100.0" fill="#FEFFFE" transform="matrix(1.00, 0.00, -0.00, -1.00, -6.0, 4.0)">D</text><text xml:space="preserve" font-family="GothamBold" font-weight="bold" font-size="100.0" fill="#FEFFFE" transform="matrix(1.00, 0.00, -0.00, -1.00, 74.5, 4.0)">Y</text><text xml:space="preserve" font-family="GothamBold" font-weight="bold" font-size="100.0" fill="#FEFFFE" transform="matrix(1.00, 0.00, -0.00, -1.00, 148.3, 4.0)">N</text><text xml:space="preserve" font-family="GothamBold" font-weight="bold" font-size="100.0" fill="#FEFFFE" transform="matrix(1.00, 0.00, -0.00, -1.00, 229.6, 4.0)">A</text><text xml:space="preserve" font-family="GothamBold" font-weight="bold" font-size="100.0" fill="#FEFFFE" transform="matrix(1.00, 0.00, -0.00, -1.00, 310.8, 4.0)">M</text><text xml:space="preserve" font-family="GothamBold" font-weight="bold" font-size="100.0" fill="#FEFFFE" transform="matrix(1.00, 0.00, -0.00, -1.00, 399.9, 4.0)">I</text><text xml:space="preserve" font-family="GothamBold" font-weight="bold" font-size="100.0" fill="#FEFFFE" transform="matrix(1.00, 0.00, -0.00, -1.00, 435.7, 4.0)">C</text><text xml:space="preserve" font-family="GothamBold" font-weight="bold" font-size="100.0" fill="#FEFFFE" transform="matrix(1.00, 0.00, -0.00, -1.00, 511.8, 4.0)">S</text></g></svg>