<?xml version="1.0" encoding="UTF-8" standalone="no"?><svg xmlns="http://www.w3.org/2000/svg" xmlns:xlink="http://www.w3.org/1999/xlink" clip-rule="evenodd" stroke-miterlimit="4.00" viewBox="0 0 771 393"><desc>SVG generated by Keynote</desc><defs></defs><g transform="matrix(1.00, 0.00, -0.00, -1.00, 0.0, 393.0)"><text xml:space="preserve" font-family="GothamBold" font-weight="bold" font-size="130.0" fill="#FEFFFE" transform="matrix(1.00, 0.00, -0.00, -1.00, 115.0, 300.0)">N</text><text xml:space="preserve" font-family="GothamBold" font-weight="bold" font-size="130.0" fill="#FEFFFE" transform="matrix(1.00, 0.00, -0.00, -1.00, 220.6, 300.0)">E</text><text xml:space="preserve" font-family="GothamBold" font-weight="bold" font-size="130.0" fill="#FEFFFE" transform="matrix(1.00, 0.00, -0.00, -1.00, 310.7, 300.0)">V</text><text xml:space="preserve" font-family="GothamBold" font-weight="bold" font-size="130.0" fill="#FEFFFE" transform="matrix(1.00, 0.00, -0.00, -1.00, 411.1, 300.0)">E</text><text xml:space="preserve" font-family="GothamBold" font-weight="bold" font-size="130.0" fill="#FEFFFE" transform="matrix(1.00, 0.00, -0.00, -1.00, 501.1, 300.0)">R</text><text xml:space="preserve" font-family="GothamBold" font-weight="bold" font-size="130.0" fill="#FEFFFE" transform="matrix(1.00, 0.00, -0.00, -1.00, 598.0, 300.0)">-</text><text xml:space="preserve" font-family="GothamBold" font-weight="bold" font-size="130.0" fill="#FEFFFE" transform="matrix(1.00, 0.00, -0.00, -1.00, 106.0, 152.0)">E</text><text xml:space="preserve" font-family="GothamBold" font-weight="bold" font-size="130.0" fill="#FEFFFE" transform="matrix(1.00, 0.00, -0.00, -1.00, 196.0, 152.0)">N</text><text xml:space="preserve" font-family="GothamBold" font-weight="bold" font-size="130.0" fill="#FEFFFE" transform="matrix(1.00, 0.00, -0.00, -1.00, 301.7, 152.0)">D</text><text xml:space="preserve" font-family="GothamBold" font-weight="bold" font-size="130.0" fill="#FEFFFE" transform="matrix(1.00, 0.00, -0.00, -1.00, 406.2, 152.0)">I</text><text xml:space="preserve" font-family="GothamBold" font-weight="bold" font-size="130.0" fill="#FEFFFE" transform="matrix(1.00, 0.00, -0.00, -1.00, 452.8, 152.0)">N</text><text xml:space="preserve" font-family="GothamBold" font-weight="bold" font-size="130.0" fill="#FEFFFE" transform="matrix(1.00, 0.00, -0.00, -1.00, 558.5, 152.0)">G</text><text xml:space="preserve" font-family="GothamBold" font-weight="bold" font-size="130.0" fill="#FEFFFE" transform="matrix(1.00, 0.00, -0.00, -1.00, 663.3, 152.0)"> </text><text xml:space="preserve" font-family="GothamBold" font-weight="bold" font-size="130.0" fill="#FEFFFE" transform="matrix(1.00, 0.00, -0.00, -1.00, -9.0, 3.0)">B</text><text xml:space="preserve" font-family="GothamBold" font-weight="bold" font-size="130.0" fill="#FEFFFE" transform="matrix(1.00, 0.00, -0.00, -1.00, 87.8, 3.0)">A</text><text xml:space="preserve" font-family="GothamBold" font-weight="bold" font-size="130.0" fill="#FEFFFE" transform="matrix(1.00, 0.00, -0.00, -1.00, 193.4, 3.0)">C</text><text xml:space="preserve" font-family="GothamBold" font-weight="bold" font-size="130.0" fill="#FEFFFE" transform="matrix(1.00, 0.00, -0.00, -1.00, 292.3, 3.0)">K</text><text xml:space="preserve" font-family="GothamBold" font-weight="bold" font-size="130.0" fill="#FEFFFE" transform="matrix(1.00, 0.00, -0.00, -1.00, 390.1, 3.0)">L</text><text xml:space="preserve" font-family="GothamBold" font-weight="bold" font-size="130.0" fill="#FEFFFE" transform="matrix(1.00, 0.00, -0.00, -1.00, 473.5, 3.0)">O</text><text xml:space="preserve" font-family="GothamBold" font-weight="bold" font-size="130.0" fill="#FEFFFE" transform="matrix(1.00, 0.00, -0.00, -1.00, 586.9, 3.0)">G</text><text xml:space="preserve" font-family="GothamBold" font-weight="bold" font-size="130.0" fill="#FEFFFE" transform="matrix(1.00, 0.00, -0.00, -1.00, 691.8, 3.0)">S</text></g></svg>