<?xml version="1.0" encoding="UTF-8" standalone="no"?><svg xmlns="http://www.w3.org/2000/svg" xmlns:xlink="http://www.w3.org/1999/xlink" clip-rule="evenodd" stroke-miterlimit="4.00" viewBox="0 0 1024 768"><desc>SVG generated by Keynote</desc><defs></defs><g transform="matrix(1.00, 0.00, -0.00, -1.00, 0.0, 768.0)"><path d="M 0.0 768.0 L 1024.0 768.0 L 1024.0 0.0 L 0.0 0.0 Z M 0.0 768.0 " fill="#000000"></path><image xlink:href="../../561C1E18-5E17-461A-B137-E2B93E5B667F/assets/1555F6BB5B3E29F27EA9FEA980488E33.png" width="380.00" height="214.00" transform="matrix(2.71, 0.00, -0.00, -2.71, -3.0, 674.0)"></image><text xml:space="preserve" font-family="GothamBold" font-weight="bold" font-size="106.0" fill="#FEFFFE" transform="matrix(1.00, 0.00, -0.00, -1.00, 122.0, 414.0)">C</text><text xml:space="preserve" font-family="GothamBold" font-weight="bold" font-size="106.0" fill="#FEFFFE" transform="matrix(1.00, 0.00, -0.00, -1.00, 202.6, 414.0)">O</text><text xml:space="preserve" font-family="GothamBold" font-weight="bold" font-size="106.0" fill="#FEFFFE" transform="matrix(1.00, 0.00, -0.00, -1.00, 295.1, 414.0)">N</text><text xml:space="preserve" font-family="GothamBold" font-weight="bold" font-size="106.0" fill="#FEFFFE" transform="matrix(1.00, 0.00, -0.00, -1.00, 381.2, 414.0)">T</text><text xml:space="preserve" font-family="GothamBold" font-weight="bold" font-size="106.0" fill="#FEFFFE" transform="matrix(1.00, 0.00, -0.00, -1.00, 452.3, 414.0)">I</text><text xml:space="preserve" font-family="GothamBold" font-weight="bold" font-size="106.0" fill="#FEFFFE" transform="matrix(1.00, 0.00, -0.00, -1.00, 490.3, 414.0)">N</text><text xml:space="preserve" font-family="GothamBold" font-weight="bold" font-size="106.0" fill="#FEFFFE" transform="matrix(1.00, 0.00, -0.00, -1.00, 576.4, 414.0)">U</text><text xml:space="preserve" font-family="GothamBold" font-weight="bold" font-size="106.0" fill="#FEFFFE" transform="matrix(1.00, 0.00, -0.00, -1.00, 658.9, 414.0)">O</text><text xml:space="preserve" font-family="GothamBold" font-weight="bold" font-size="106.0" fill="#FEFFFE" transform="matrix(1.00, 0.00, -0.00, -1.00, 751.4, 414.0)">U</text><text xml:space="preserve" font-family="GothamBold" font-weight="bold" font-size="106.0" fill="#FEFFFE" transform="matrix(1.00, 0.00, -0.00, -1.00, 833.9, 414.0)">S</text><text xml:space="preserve" font-family="GothamBold" font-weight="bold" font-size="106.0" fill="#FEFFFE" transform="matrix(1.00, 0.00, -0.00, -1.00, 904.2, 414.0)"> </text><text xml:space="preserve" font-family="GothamBold" font-weight="bold" font-size="106.0" fill="#FEFFFE" transform="matrix(1.00, 0.00, -0.00, -1.00, 225.0, 295.0)">D</text><text xml:space="preserve" font-family="GothamBold" font-weight="bold" font-size="106.0" fill="#FEFFFE" transform="matrix(1.00, 0.00, -0.00, -1.00, 310.3, 295.0)">E</text><text xml:space="preserve" font-family="GothamBold" font-weight="bold" font-size="106.0" fill="#FEFFFE" transform="matrix(1.00, 0.00, -0.00, -1.00, 383.7, 295.0)">L</text><text xml:space="preserve" font-family="GothamBold" font-weight="bold" font-size="106.0" fill="#FEFFFE" transform="matrix(1.00, 0.00, -0.00, -1.00, 451.7, 295.0)">I</text><text xml:space="preserve" font-family="GothamBold" font-weight="bold" font-size="106.0" fill="#FEFFFE" transform="matrix(1.00, 0.00, -0.00, -1.00, 489.7, 295.0)">V</text><text xml:space="preserve" font-family="GothamBold" font-weight="bold" font-size="106.0" fill="#FEFFFE" transform="matrix(1.00, 0.00, -0.00, -1.00, 571.6, 295.0)">E</text><text xml:space="preserve" font-family="GothamBold" font-weight="bold" font-size="106.0" fill="#FEFFFE" transform="matrix(1.00, 0.00, -0.00, -1.00, 645.0, 295.0)">R</text><text xml:space="preserve" font-family="GothamBold" font-weight="bold" font-size="106.0" fill="#FEFFFE" transform="matrix(1.00, 0.00, -0.00, -1.00, 724.0, 295.0)">Y</text><text xml:space="preserve" font-family="Helvetica-Light" font-size="40.0" fill="#FEFFFE" transform="matrix(1.00, 0.00, -0.00, -1.00, 16.0, 20.0)">@</text><text xml:space="preserve" font-family="Helvetica-Light" font-size="40.0" fill="#FEFFFE" transform="matrix(1.00, 0.00, -0.00, -1.00, 48.0, 20.0)">b</text><text xml:space="preserve" font-family="Helvetica-Light" font-size="40.0" fill="#FEFFFE" transform="matrix(1.00, 0.00, -0.00, -1.00, 72.4, 20.0)">u</text><text xml:space="preserve" font-family="Helvetica-Light" font-size="40.0" fill="#FEFFFE" transform="matrix(1.00, 0.00, -0.00, -1.00, 94.7, 20.0)">r</text><text xml:space="preserve" font-family="Helvetica-Light" font-size="40.0" fill="#FEFFFE" transform="matrix(1.00, 0.00, -0.00, -1.00, 108.0, 20.0)">i</text><text xml:space="preserve" font-family="Helvetica-Light" font-size="40.0" fill="#FEFFFE" transform="matrix(1.00, 0.00, -0.00, -1.00, 116.9, 20.0)">t</text><text xml:space="preserve" font-family="Helvetica-Light" font-size="40.0" fill="#FEFFFE" transform="matrix(1.00, 0.00, -0.00, -1.00, 128.0, 20.0)">i</text><text xml:space="preserve" font-family="Helvetica-Light" font-size="40.0" fill="#FEFFFE" transform="matrix(1.00, 0.00, -0.00, -1.00, 136.9, 20.0)">c</text><text xml:space="preserve" font-family="Helvetica-Light" font-size="40.0" fill="#FEFFFE" transform="matrix(1.00, 0.00, -0.00, -1.00, 159.1, 20.0)">a</text><g><clipPath id="clip-258"><path d="M 15.5 14.5 L 181.8 14.5 L 181.8 18.5 L 15.5 18.5 Z M 15.5 14.5 "></path></clipPath><g clip-path="url(#clip-258)"><path d="M 4.5 45.8 L 169.9 45.8 " fill="none" stroke="#FEFFFE" stroke-width="2.00" stroke-miterlimit="0.00" transform="matrix(1.00, 0.00, 0.00, -1.00, 12.0, 62.3)"></path></g></g><text xml:space="preserve" font-family="Helvetica-Light" font-size="40.0" fill="#FEFFFE" transform="matrix(1.00, 0.00, -0.00, -1.00, 738.0, 20.0)">@</text><text xml:space="preserve" font-family="Helvetica-Light" font-size="40.0" fill="#FEFFFE" transform="matrix(1.00, 0.00, -0.00, -1.00, 770.0, 20.0)">p</text><text xml:space="preserve" font-family="Helvetica-Light" font-size="40.0" fill="#FEFFFE" transform="matrix(1.00, 0.00, -0.00, -1.00, 794.4, 20.0)">a</text><text xml:space="preserve" font-family="Helvetica-Light" font-size="40.0" fill="#FEFFFE" transform="matrix(1.00, 0.00, -0.00, -1.00, 816.7, 20.0)">t</text><text xml:space="preserve" font-family="Helvetica-Light" font-size="40.0" fill="#FEFFFE" transform="matrix(1.00, 0.00, -0.00, -1.00, 827.8, 20.0)">r</text><text xml:space="preserve" font-family="Helvetica-Light" font-size="40.0" fill="#FEFFFE" transform="matrix(1.00, 0.00, -0.00, -1.00, 841.1, 20.0)">i</text><text xml:space="preserve" font-family="Helvetica-Light" font-size="40.0" fill="#FEFFFE" transform="matrix(1.00, 0.00, -0.00, -1.00, 850.0, 20.0)">c</text><text xml:space="preserve" font-family="Helvetica-Light" font-size="40.0" fill="#FEFFFE" transform="matrix(1.00, 0.00, -0.00, -1.00, 872.2, 20.0)">i</text><text xml:space="preserve" font-family="Helvetica-Light" font-size="40.0" fill="#FEFFFE" transform="matrix(1.00, 0.00, -0.00, -1.00, 881.1, 20.0)">a</text><text xml:space="preserve" font-family="Helvetica-Light" font-size="40.0" fill="#FEFFFE" transform="matrix(1.00, 0.00, -0.00, -1.00, 903.4, 20.0)">r</text><text xml:space="preserve" font-family="Helvetica-Light" font-size="40.0" fill="#FEFFFE" transform="matrix(1.00, 0.00, -0.00, -1.00, 916.0, 20.0)">e</text><text xml:space="preserve" font-family="Helvetica-Light" font-size="40.0" fill="#FEFFFE" transform="matrix(1.00, 0.00, -0.00, -1.00, 938.2, 20.0)">a</text><text xml:space="preserve" font-family="Helvetica-Light" font-size="40.0" fill="#FEFFFE" transform="matrix(1.00, 0.00, -0.00, -1.00, 960.4, 20.0)">l</text><text xml:space="preserve" font-family="Helvetica-Light" font-size="40.0" fill="#FEFFFE" transform="matrix(1.00, 0.00, -0.00, -1.00, 969.3, 20.0)">i</text><text xml:space="preserve" font-family="Helvetica-Light" font-size="40.0" fill="#FEFFFE" transform="matrix(1.00, 0.00, -0.00, -1.00, 978.2, 20.0)">n</text><text xml:space="preserve" font-family="Helvetica-Light" font-size="40.0" fill="#FEFFFE" transform="matrix(1.00, 0.00, -0.00, -1.00, 1000.4, 20.0)">i</text><g><clipPath id="clip-259"><path d="M 737.3 14.5 L 1009.6 14.5 L 1009.6 18.5 L 737.3 18.5 Z M 737.3 14.5 "></path></clipPath><g clip-path="url(#clip-259)"><path d="M 4.5 45.8 L 275.8 45.8 " fill="none" stroke="#FEFFFE" stroke-width="2.00" stroke-miterlimit="0.00" transform="matrix(1.00, 0.00, 0.00, -1.00, 733.8, 62.3)"></path></g></g></g></svg>