<?xml version="1.0" encoding="UTF-8" standalone="no"?><svg xmlns="http://www.w3.org/2000/svg" xmlns:xlink="http://www.w3.org/1999/xlink" clip-rule="evenodd" stroke-miterlimit="4.00" viewBox="0 0 1024 768"><desc>SVG generated by Keynote</desc><defs></defs><g transform="matrix(1.00, 0.00, -0.00, -1.00, 0.0, 768.0)"><path d="M 0.0 768.0 L 1024.0 768.0 L 1024.0 0.0 L 0.0 0.0 Z M 0.0 768.0 " fill="#FEFFFF"></path><text xml:space="preserve" font-family="Helvetica-Light" font-size="68.0" fill="#00968A" transform="matrix(1.00, 0.00, -0.00, -1.00, 387.0, 504.0)">J</text><text xml:space="preserve" font-family="Helvetica-Light" font-size="68.0" fill="#00968A" transform="matrix(1.00, 0.00, -0.00, -1.00, 421.0, 504.0)">u</text><text xml:space="preserve" font-family="Helvetica-Light" font-size="68.0" fill="#00968A" transform="matrix(1.00, 0.00, -0.00, -1.00, 458.8, 504.0)">a</text><text xml:space="preserve" font-family="Helvetica-Light" font-size="68.0" fill="#00968A" transform="matrix(1.00, 0.00, -0.00, -1.00, 496.6, 504.0)">n</text><text xml:space="preserve" font-family="Helvetica-Light" font-size="68.0" fill="#00968A" transform="matrix(1.00, 0.00, -0.00, -1.00, 534.4, 504.0)"> </text><text xml:space="preserve" font-family="Helvetica-Light" font-size="68.0" fill="#00968A" transform="matrix(1.00, 0.00, -0.00, -1.00, 553.3, 504.0)">P</text><text xml:space="preserve" font-family="Helvetica-Light" font-size="68.0" fill="#00968A" transform="matrix(1.00, 0.00, -0.00, -1.00, 594.9, 504.0)">a</text><text xml:space="preserve" font-family="Helvetica-Light" font-size="68.0" fill="#00968A" transform="matrix(1.00, 0.00, -0.00, -1.00, 632.7, 504.0)">b</text><text xml:space="preserve" font-family="Helvetica-Light" font-size="68.0" fill="#00968A" transform="matrix(1.00, 0.00, -0.00, -1.00, 674.2, 504.0)">l</text><text xml:space="preserve" font-family="Helvetica-Light" font-size="68.0" fill="#00968A" transform="matrix(1.00, 0.00, -0.00, -1.00, 689.3, 504.0)">o</text><text xml:space="preserve" font-family="Helvetica-Light" font-size="68.0" fill="#00968A" transform="matrix(1.00, 0.00, -0.00, -1.00, 727.1, 504.0)"> </text><text xml:space="preserve" font-family="Helvetica-Light" font-size="68.0" fill="#00968A" transform="matrix(1.00, 0.00, -0.00, -1.00, 746.0, 504.0)">B</text><text xml:space="preserve" font-family="Helvetica-Light" font-size="68.0" fill="#00968A" transform="matrix(1.00, 0.00, -0.00, -1.00, 791.4, 504.0)">u</text><text xml:space="preserve" font-family="Helvetica-Light" font-size="68.0" fill="#00968A" transform="matrix(1.00, 0.00, -0.00, -1.00, 829.2, 504.0)">r</text><text xml:space="preserve" font-family="Helvetica-Light" font-size="68.0" fill="#00968A" transform="matrix(1.00, 0.00, -0.00, -1.00, 851.8, 504.0)">i</text><text xml:space="preserve" font-family="Helvetica-Light" font-size="68.0" fill="#00968A" transform="matrix(1.00, 0.00, -0.00, -1.00, 866.9, 504.0)">t</text><text xml:space="preserve" font-family="Helvetica-Light" font-size="68.0" fill="#00968A" transform="matrix(1.00, 0.00, -0.00, -1.00, 885.8, 504.0)">i</text><text xml:space="preserve" font-family="Helvetica-Light" font-size="68.0" fill="#00968A" transform="matrix(1.00, 0.00, -0.00, -1.00, 900.9, 504.0)">c</text><text xml:space="preserve" font-family="Helvetica-Light" font-size="68.0" fill="#00968A" transform="matrix(1.00, 0.00, -0.00, -1.00, 938.8, 504.0)">a</text><image xlink:href="../../F48E95BA-F1D9-4127-A5DD-D311AB0F0D4E/assets/CA2B328B05FA7ACAABD1A1C92F753729.jpeg" width="239.00" height="321.00" transform="matrix(1.00, 0.00, -0.00, -1.00, 86.0, 733.0)"></image><image xlink:href="../../A28D6F7C-2532-4D8E-97E2-08C6D9DFA0CF/assets/8DAEB457CEDB09FEBE826508331C9B2B.jpeg" width="377.00" height="317.00" transform="matrix(1.00, 0.00, -0.00, -1.00, 600.0, 361.0)"></image><text xml:space="preserve" font-family="Helvetica-Light" font-size="75.0" fill="#00968A" transform="matrix(1.00, 0.00, -0.00, -1.00, 57.0, 128.0)">P</text><text xml:space="preserve" font-family="Helvetica-Light" font-size="75.0" fill="#00968A" transform="matrix(1.00, 0.00, -0.00, -1.00, 102.8, 128.0)">a</text><text xml:space="preserve" font-family="Helvetica-Light" font-size="75.0" fill="#00968A" transform="matrix(1.00, 0.00, -0.00, -1.00, 144.5, 128.0)">t</text><text xml:space="preserve" font-family="Helvetica-Light" font-size="75.0" fill="#00968A" transform="matrix(1.00, 0.00, -0.00, -1.00, 165.4, 128.0)">r</text><text xml:space="preserve" font-family="Helvetica-Light" font-size="75.0" fill="#00968A" transform="matrix(1.00, 0.00, -0.00, -1.00, 190.3, 128.0)">i</text><text xml:space="preserve" font-family="Helvetica-Light" font-size="75.0" fill="#00968A" transform="matrix(1.00, 0.00, -0.00, -1.00, 207.0, 128.0)">c</text><text xml:space="preserve" font-family="Helvetica-Light" font-size="75.0" fill="#00968A" transform="matrix(1.00, 0.00, -0.00, -1.00, 248.7, 128.0)">i</text><text xml:space="preserve" font-family="Helvetica-Light" font-size="75.0" fill="#00968A" transform="matrix(1.00, 0.00, -0.00, -1.00, 265.4, 128.0)">a</text><text xml:space="preserve" font-family="Helvetica-Light" font-size="75.0" fill="#00968A" transform="matrix(1.00, 0.00, -0.00, -1.00, 307.0, 128.0)"> </text><text xml:space="preserve" font-family="Helvetica-Light" font-size="75.0" fill="#00968A" transform="matrix(1.00, 0.00, -0.00, -1.00, 327.9, 128.0)">R</text><text xml:space="preserve" font-family="Helvetica-Light" font-size="75.0" fill="#00968A" transform="matrix(1.00, 0.00, -0.00, -1.00, 377.9, 128.0)">e</text><text xml:space="preserve" font-family="Helvetica-Light" font-size="75.0" fill="#00968A" transform="matrix(1.00, 0.00, -0.00, -1.00, 419.6, 128.0)">a</text><text xml:space="preserve" font-family="Helvetica-Light" font-size="75.0" fill="#00968A" transform="matrix(1.00, 0.00, -0.00, -1.00, 461.3, 128.0)">l</text><text xml:space="preserve" font-family="Helvetica-Light" font-size="75.0" fill="#00968A" transform="matrix(1.00, 0.00, -0.00, -1.00, 478.0, 128.0)">i</text><text xml:space="preserve" font-family="Helvetica-Light" font-size="75.0" fill="#00968A" transform="matrix(1.00, 0.00, -0.00, -1.00, 494.6, 128.0)">n</text><text xml:space="preserve" font-family="Helvetica-Light" font-size="75.0" fill="#00968A" transform="matrix(1.00, 0.00, -0.00, -1.00, 536.3, 128.0)">i</text><text xml:space="preserve" font-family="Helvetica-Light" font-size="60.0" fill="#00968A" transform="matrix(1.00, 0.00, -0.00, -1.00, 558.0, 585.0)">@</text><text xml:space="preserve" font-family="Helvetica-Light" font-size="60.0" fill="#00968A" transform="matrix(1.00, 0.00, -0.00, -1.00, 606.0, 585.0)">b</text><text xml:space="preserve" font-family="Helvetica-Light" font-size="60.0" fill="#00968A" transform="matrix(1.00, 0.00, -0.00, -1.00, 642.7, 585.0)">u</text><text xml:space="preserve" font-family="Helvetica-Light" font-size="60.0" fill="#00968A" transform="matrix(1.00, 0.00, -0.00, -1.00, 676.0, 585.0)">r</text><text xml:space="preserve" font-family="Helvetica-Light" font-size="60.0" fill="#00968A" transform="matrix(1.00, 0.00, -0.00, -1.00, 696.0, 585.0)">i</text><text xml:space="preserve" font-family="Helvetica-Light" font-size="60.0" fill="#00968A" transform="matrix(1.00, 0.00, -0.00, -1.00, 709.3, 585.0)">t</text><text xml:space="preserve" font-family="Helvetica-Light" font-size="60.0" fill="#00968A" transform="matrix(1.00, 0.00, -0.00, -1.00, 726.0, 585.0)">i</text><text xml:space="preserve" font-family="Helvetica-Light" font-size="60.0" fill="#00968A" transform="matrix(1.00, 0.00, -0.00, -1.00, 739.3, 585.0)">c</text><text xml:space="preserve" font-family="Helvetica-Light" font-size="60.0" fill="#00968A" transform="matrix(1.00, 0.00, -0.00, -1.00, 772.7, 585.0)">a</text><text xml:space="preserve" font-family="Helvetica-Light" font-size="60.0" fill="#00968A" transform="matrix(1.00, 0.00, -0.00, -1.00, 101.0, 212.0)">@</text><text xml:space="preserve" font-family="Helvetica-Light" font-size="60.0" fill="#00968A" transform="matrix(1.00, 0.00, -0.00, -1.00, 149.0, 212.0)">p</text><text xml:space="preserve" font-family="Helvetica-Light" font-size="60.0" fill="#00968A" transform="matrix(1.00, 0.00, -0.00, -1.00, 185.7, 212.0)">a</text><text xml:space="preserve" font-family="Helvetica-Light" font-size="60.0" fill="#00968A" transform="matrix(1.00, 0.00, -0.00, -1.00, 219.0, 212.0)">t</text><text xml:space="preserve" font-family="Helvetica-Light" font-size="60.0" fill="#00968A" transform="matrix(1.00, 0.00, -0.00, -1.00, 235.7, 212.0)">r</text><text xml:space="preserve" font-family="Helvetica-Light" font-size="60.0" fill="#00968A" transform="matrix(1.00, 0.00, -0.00, -1.00, 255.7, 212.0)">i</text><text xml:space="preserve" font-family="Helvetica-Light" font-size="60.0" fill="#00968A" transform="matrix(1.00, 0.00, -0.00, -1.00, 269.0, 212.0)">c</text><text xml:space="preserve" font-family="Helvetica-Light" font-size="60.0" fill="#00968A" transform="matrix(1.00, 0.00, -0.00, -1.00, 302.4, 212.0)">i</text><text xml:space="preserve" font-family="Helvetica-Light" font-size="60.0" fill="#00968A" transform="matrix(1.00, 0.00, -0.00, -1.00, 315.7, 212.0)">a</text><text xml:space="preserve" font-family="Helvetica-Light" font-size="60.0" fill="#00968A" transform="matrix(1.00, 0.00, -0.00, -1.00, 349.0, 212.0)">r</text><text xml:space="preserve" font-family="Helvetica-Light" font-size="60.0" fill="#00968A" transform="matrix(1.00, 0.00, -0.00, -1.00, 367.9, 212.0)">e</text><text xml:space="preserve" font-family="Helvetica-Light" font-size="60.0" fill="#00968A" transform="matrix(1.00, 0.00, -0.00, -1.00, 401.3, 212.0)">a</text><text xml:space="preserve" font-family="Helvetica-Light" font-size="60.0" fill="#00968A" transform="matrix(1.00, 0.00, -0.00, -1.00, 434.7, 212.0)">l</text><text xml:space="preserve" font-family="Helvetica-Light" font-size="60.0" fill="#00968A" transform="matrix(1.00, 0.00, -0.00, -1.00, 448.0, 212.0)">i</text><text xml:space="preserve" font-family="Helvetica-Light" font-size="60.0" fill="#00968A" transform="matrix(1.00, 0.00, -0.00, -1.00, 461.3, 212.0)">n</text><text xml:space="preserve" font-family="Helvetica-Light" font-size="60.0" fill="#00968A" transform="matrix(1.00, 0.00, -0.00, -1.00, 494.7, 212.0)">i</text></g></svg>