<?xml version="1.0" encoding="UTF-8" standalone="no"?><svg xmlns="http://www.w3.org/2000/svg" xmlns:xlink="http://www.w3.org/1999/xlink" clip-rule="evenodd" stroke-miterlimit="4.00" viewBox="0 0 1024 768"><desc>SVG generated by Keynote</desc><defs></defs><g transform="matrix(1.00, 0.00, -0.00, -1.00, 0.0, 768.0)"><path d="M 0.0 768.0 L 1024.0 768.0 L 1024.0 0.0 L 0.0 0.0 Z M 0.0 768.0 " fill="#01A79D"></path><text xml:space="preserve" font-family="Helvetica-Light" font-size="168.0" fill="#FEFFFE" transform="matrix(1.00, 0.00, -0.00, -1.00, 339.0, 366.0)">H</text><text xml:space="preserve" font-family="Helvetica-Light" font-size="168.0" fill="#FEFFFE" transform="matrix(1.00, 0.00, -0.00, -1.00, 460.3, 366.0)">O</text><text xml:space="preserve" font-family="Helvetica-Light" font-size="168.0" fill="#FEFFFE" transform="matrix(1.00, 0.00, -0.00, -1.00, 591.0, 366.0)">T</text><text xml:space="preserve" font-family="Helvetica-Light" font-size="40.0" fill="#FEFFFE" transform="matrix(1.00, 0.00, -0.00, -1.00, 16.0, 20.0)">@</text><text xml:space="preserve" font-family="Helvetica-Light" font-size="40.0" fill="#FEFFFE" transform="matrix(1.00, 0.00, -0.00, -1.00, 48.0, 20.0)">b</text><text xml:space="preserve" font-family="Helvetica-Light" font-size="40.0" fill="#FEFFFE" transform="matrix(1.00, 0.00, -0.00, -1.00, 72.4, 20.0)">u</text><text xml:space="preserve" font-family="Helvetica-Light" font-size="40.0" fill="#FEFFFE" transform="matrix(1.00, 0.00, -0.00, -1.00, 94.7, 20.0)">r</text><text xml:space="preserve" font-family="Helvetica-Light" font-size="40.0" fill="#FEFFFE" transform="matrix(1.00, 0.00, -0.00, -1.00, 108.0, 20.0)">i</text><text xml:space="preserve" font-family="Helvetica-Light" font-size="40.0" fill="#FEFFFE" transform="matrix(1.00, 0.00, -0.00, -1.00, 116.9, 20.0)">t</text><text xml:space="preserve" font-family="Helvetica-Light" font-size="40.0" fill="#FEFFFE" transform="matrix(1.00, 0.00, -0.00, -1.00, 128.0, 20.0)">i</text><text xml:space="preserve" font-family="Helvetica-Light" font-size="40.0" fill="#FEFFFE" transform="matrix(1.00, 0.00, -0.00, -1.00, 136.9, 20.0)">c</text><text xml:space="preserve" font-family="Helvetica-Light" font-size="40.0" fill="#FEFFFE" transform="matrix(1.00, 0.00, -0.00, -1.00, 159.1, 20.0)">a</text><g><clipPath id="clip-306"><path d="M 15.5 14.5 L 181.8 14.5 L 181.8 18.5 L 15.5 18.5 Z M 15.5 14.5 "></path></clipPath><g clip-path="url(#clip-306)"><path d="M 4.5 45.8 L 169.9 45.8 " fill="none" stroke="#FEFFFE" stroke-width="2.00" stroke-miterlimit="0.00" transform="matrix(1.00, 0.00, 0.00, -1.00, 12.0, 62.3)"></path></g></g><text xml:space="preserve" font-family="Helvetica-Light" font-size="40.0" fill="#FEFFFE" transform="matrix(1.00, 0.00, -0.00, -1.00, 738.0, 20.0)">@</text><text xml:space="preserve" font-family="Helvetica-Light" font-size="40.0" fill="#FEFFFE" transform="matrix(1.00, 0.00, -0.00, -1.00, 770.0, 20.0)">p</text><text xml:space="preserve" font-family="Helvetica-Light" font-size="40.0" fill="#FEFFFE" transform="matrix(1.00, 0.00, -0.00, -1.00, 794.4, 20.0)">a</text><text xml:space="preserve" font-family="Helvetica-Light" font-size="40.0" fill="#FEFFFE" transform="matrix(1.00, 0.00, -0.00, -1.00, 816.7, 20.0)">t</text><text xml:space="preserve" font-family="Helvetica-Light" font-size="40.0" fill="#FEFFFE" transform="matrix(1.00, 0.00, -0.00, -1.00, 827.8, 20.0)">r</text><text xml:space="preserve" font-family="Helvetica-Light" font-size="40.0" fill="#FEFFFE" transform="matrix(1.00, 0.00, -0.00, -1.00, 841.1, 20.0)">i</text><text xml:space="preserve" font-family="Helvetica-Light" font-size="40.0" fill="#FEFFFE" transform="matrix(1.00, 0.00, -0.00, -1.00, 850.0, 20.0)">c</text><text xml:space="preserve" font-family="Helvetica-Light" font-size="40.0" fill="#FEFFFE" transform="matrix(1.00, 0.00, -0.00, -1.00, 872.2, 20.0)">i</text><text xml:space="preserve" font-family="Helvetica-Light" font-size="40.0" fill="#FEFFFE" transform="matrix(1.00, 0.00, -0.00, -1.00, 881.1, 20.0)">a</text><text xml:space="preserve" font-family="Helvetica-Light" font-size="40.0" fill="#FEFFFE" transform="matrix(1.00, 0.00, -0.00, -1.00, 903.4, 20.0)">r</text><text xml:space="preserve" font-family="Helvetica-Light" font-size="40.0" fill="#FEFFFE" transform="matrix(1.00, 0.00, -0.00, -1.00, 916.0, 20.0)">e</text><text xml:space="preserve" font-family="Helvetica-Light" font-size="40.0" fill="#FEFFFE" transform="matrix(1.00, 0.00, -0.00, -1.00, 938.2, 20.0)">a</text><text xml:space="preserve" font-family="Helvetica-Light" font-size="40.0" fill="#FEFFFE" transform="matrix(1.00, 0.00, -0.00, -1.00, 960.4, 20.0)">l</text><text xml:space="preserve" font-family="Helvetica-Light" font-size="40.0" fill="#FEFFFE" transform="matrix(1.00, 0.00, -0.00, -1.00, 969.3, 20.0)">i</text><text xml:space="preserve" font-family="Helvetica-Light" font-size="40.0" fill="#FEFFFE" transform="matrix(1.00, 0.00, -0.00, -1.00, 978.2, 20.0)">n</text><text xml:space="preserve" font-family="Helvetica-Light" font-size="40.0" fill="#FEFFFE" transform="matrix(1.00, 0.00, -0.00, -1.00, 1000.4, 20.0)">i</text><g><clipPath id="clip-307"><path d="M 737.3 14.5 L 1009.6 14.5 L 1009.6 18.5 L 737.3 18.5 Z M 737.3 14.5 "></path></clipPath><g clip-path="url(#clip-307)"><path d="M 4.5 45.8 L 275.8 45.8 " fill="none" stroke="#FEFFFE" stroke-width="2.00" stroke-miterlimit="0.00" transform="matrix(1.00, 0.00, 0.00, -1.00, 733.8, 62.3)"></path></g></g><text xml:space="preserve" font-family="Helvetica-Light" font-size="90.0" fill="#FEFFFE" transform="matrix(1.00, 0.00, -0.00, -1.00, 345.0, 508.0)">B</text><text xml:space="preserve" font-family="Helvetica-Light" font-size="90.0" fill="#FEFFFE" transform="matrix(1.00, 0.00, -0.00, -1.00, 405.0, 508.0)">E</text><text xml:space="preserve" font-family="Helvetica-Light" font-size="90.0" fill="#FEFFFE" transform="matrix(1.00, 0.00, -0.00, -1.00, 460.0, 508.0)">H</text><text xml:space="preserve" font-family="Helvetica-Light" font-size="90.0" fill="#FEFFFE" transform="matrix(1.00, 0.00, -0.00, -1.00, 525.0, 508.0)">I</text><text xml:space="preserve" font-family="Helvetica-Light" font-size="90.0" fill="#FEFFFE" transform="matrix(1.00, 0.00, -0.00, -1.00, 550.0, 508.0)">N</text><text xml:space="preserve" font-family="Helvetica-Light" font-size="90.0" fill="#FEFFFE" transform="matrix(1.00, 0.00, -0.00, -1.00, 615.0, 508.0)">D</text><text xml:space="preserve" font-family="Helvetica-Light" font-size="101.0" fill="#FEFFFE" transform="matrix(1.00, 0.00, -0.00, -1.00, 346.0, 196.0)">S</text><text xml:space="preserve" font-family="Helvetica-Light" font-size="101.0" fill="#FEFFFE" transform="matrix(1.00, 0.00, -0.00, -1.00, 407.7, 196.0)">H</text><text xml:space="preserve" font-family="Helvetica-Light" font-size="101.0" fill="#FEFFFE" transform="matrix(1.00, 0.00, -0.00, -1.00, 480.6, 196.0)">A</text><text xml:space="preserve" font-family="Helvetica-Light" font-size="101.0" fill="#FEFFFE" transform="matrix(1.00, 0.00, -0.00, -1.00, 548.0, 196.0)">R</text><text xml:space="preserve" font-family="Helvetica-Light" font-size="101.0" fill="#FEFFFE" transform="matrix(1.00, 0.00, -0.00, -1.00, 615.4, 196.0)">P</text><text xml:space="preserve" font-family="Helvetica-Light" font-size="79.0" fill="#FEFFFE" transform="matrix(1.00, 0.00, -0.00, -1.00, 347.0, 287.0)">C</text><text xml:space="preserve" font-family="Helvetica-Light" font-size="79.0" fill="#FEFFFE" transform="matrix(1.00, 0.00, -0.00, -1.00, 404.0, 287.0)">O</text><text xml:space="preserve" font-family="Helvetica-Light" font-size="79.0" fill="#FEFFFE" transform="matrix(1.00, 0.00, -0.00, -1.00, 465.5, 287.0)">R</text><text xml:space="preserve" font-family="Helvetica-Light" font-size="79.0" fill="#FEFFFE" transform="matrix(1.00, 0.00, -0.00, -1.00, 518.2, 287.0)">N</text><text xml:space="preserve" font-family="Helvetica-Light" font-size="79.0" fill="#FEFFFE" transform="matrix(1.00, 0.00, -0.00, -1.00, 575.2, 287.0)">E</text><text xml:space="preserve" font-family="Helvetica-Light" font-size="79.0" fill="#FEFFFE" transform="matrix(1.00, 0.00, -0.00, -1.00, 623.5, 287.0)">R</text></g></svg>