<?xml version="1.0" encoding="UTF-8" standalone="no"?><svg xmlns="http://www.w3.org/2000/svg" xmlns:xlink="http://www.w3.org/1999/xlink" clip-rule="evenodd" stroke-miterlimit="4.00" viewBox="0 0 877 395"><desc>SVG generated by Keynote</desc><defs></defs><g transform="matrix(1.00, 0.00, -0.00, -1.00, 0.0, 395.0)"><text xml:space="preserve" font-family="GothamBold" font-weight="bold" font-size="130.0" fill="#FEFFFE" transform="matrix(1.00, 0.00, -0.00, -1.00, -8.0, 300.0)">D</text><text xml:space="preserve" font-family="GothamBold" font-weight="bold" font-size="130.0" fill="#FEFFFE" transform="matrix(1.00, 0.00, -0.00, -1.00, 96.6, 300.0)">E</text><text xml:space="preserve" font-family="GothamBold" font-weight="bold" font-size="130.0" fill="#FEFFFE" transform="matrix(1.00, 0.00, -0.00, -1.00, 186.6, 300.0)">M</text><text xml:space="preserve" font-family="GothamBold" font-weight="bold" font-size="130.0" fill="#FEFFFE" transform="matrix(1.00, 0.00, -0.00, -1.00, 302.4, 300.0)">A</text><text xml:space="preserve" font-family="GothamBold" font-weight="bold" font-size="130.0" fill="#FEFFFE" transform="matrix(1.00, 0.00, -0.00, -1.00, 408.0, 300.0)">N</text><text xml:space="preserve" font-family="GothamBold" font-weight="bold" font-size="130.0" fill="#FEFFFE" transform="matrix(1.00, 0.00, -0.00, -1.00, 513.6, 300.0)">D</text><text xml:space="preserve" font-family="GothamBold" font-weight="bold" font-size="130.0" fill="#FEFFFE" transform="matrix(1.00, 0.00, -0.00, -1.00, 618.2, 300.0)">I</text><text xml:space="preserve" font-family="GothamBold" font-weight="bold" font-size="130.0" fill="#FEFFFE" transform="matrix(1.00, 0.00, -0.00, -1.00, 664.8, 300.0)">N</text><text xml:space="preserve" font-family="GothamBold" font-weight="bold" font-size="130.0" fill="#FEFFFE" transform="matrix(1.00, 0.00, -0.00, -1.00, 770.4, 300.0)">G</text><text xml:space="preserve" font-family="GothamBold" font-weight="bold" font-size="130.0" fill="#FEFFFE" transform="matrix(1.00, 0.00, -0.00, -1.00, 875.3, 300.0)"> </text><text xml:space="preserve" font-family="GothamBold" font-weight="bold" font-size="130.0" fill="#FEFFFE" transform="matrix(1.00, 0.00, -0.00, -1.00, 25.0, 152.0)">T</text><text xml:space="preserve" font-family="GothamBold" font-weight="bold" font-size="130.0" fill="#FEFFFE" transform="matrix(1.00, 0.00, -0.00, -1.00, 112.2, 152.0)">E</text><text xml:space="preserve" font-family="GothamBold" font-weight="bold" font-size="130.0" fill="#FEFFFE" transform="matrix(1.00, 0.00, -0.00, -1.00, 202.2, 152.0)">C</text><text xml:space="preserve" font-family="GothamBold" font-weight="bold" font-size="130.0" fill="#FEFFFE" transform="matrix(1.00, 0.00, -0.00, -1.00, 301.1, 152.0)">H</text><text xml:space="preserve" font-family="GothamBold" font-weight="bold" font-size="130.0" fill="#FEFFFE" transform="matrix(1.00, 0.00, -0.00, -1.00, 402.8, 152.0)">N</text><text xml:space="preserve" font-family="GothamBold" font-weight="bold" font-size="130.0" fill="#FEFFFE" transform="matrix(1.00, 0.00, -0.00, -1.00, 508.4, 152.0)">I</text><text xml:space="preserve" font-family="GothamBold" font-weight="bold" font-size="130.0" fill="#FEFFFE" transform="matrix(1.00, 0.00, -0.00, -1.00, 555.0, 152.0)">C</text><text xml:space="preserve" font-family="GothamBold" font-weight="bold" font-size="130.0" fill="#FEFFFE" transform="matrix(1.00, 0.00, -0.00, -1.00, 653.9, 152.0)">A</text><text xml:space="preserve" font-family="GothamBold" font-weight="bold" font-size="130.0" fill="#FEFFFE" transform="matrix(1.00, 0.00, -0.00, -1.00, 759.5, 152.0)">L</text><text xml:space="preserve" font-family="GothamBold" font-weight="bold" font-size="130.0" fill="#FEFFFE" transform="matrix(1.00, 0.00, -0.00, -1.00, 842.9, 152.0)"> </text><text xml:space="preserve" font-family="GothamBold" font-weight="bold" font-size="130.0" fill="#FEFFFE" transform="matrix(1.00, 0.00, -0.00, -1.00, 192.0, 3.0)">S</text><text xml:space="preserve" font-family="GothamBold" font-weight="bold" font-size="130.0" fill="#FEFFFE" transform="matrix(1.00, 0.00, -0.00, -1.00, 278.1, 3.0)">K</text><text xml:space="preserve" font-family="GothamBold" font-weight="bold" font-size="130.0" fill="#FEFFFE" transform="matrix(1.00, 0.00, -0.00, -1.00, 376.0, 3.0)">I</text><text xml:space="preserve" font-family="GothamBold" font-weight="bold" font-size="130.0" fill="#FEFFFE" transform="matrix(1.00, 0.00, -0.00, -1.00, 422.6, 3.0)">L</text><text xml:space="preserve" font-family="GothamBold" font-weight="bold" font-size="130.0" fill="#FEFFFE" transform="matrix(1.00, 0.00, -0.00, -1.00, 506.0, 3.0)">L</text><text xml:space="preserve" font-family="GothamBold" font-weight="bold" font-size="130.0" fill="#FEFFFE" transform="matrix(1.00, 0.00, -0.00, -1.00, 589.3, 3.0)">S</text></g></svg>