<?xml version="1.0" encoding="UTF-8" standalone="no"?><svg xmlns="http://www.w3.org/2000/svg" xmlns:xlink="http://www.w3.org/1999/xlink" clip-rule="evenodd" stroke-miterlimit="4.00" viewBox="0 0 800 247"><desc>SVG generated by Keynote</desc><defs></defs><g transform="matrix(1.00, 0.00, -0.00, -1.00, 0.0, 247.0)"><text xml:space="preserve" font-family="GothamBold" font-weight="bold" font-size="130.0" fill="#FEFFFE" transform="matrix(1.00, 0.00, -0.00, -1.00, 186.0, 152.0)">T</text><text xml:space="preserve" font-family="GothamBold" font-weight="bold" font-size="130.0" fill="#FEFFFE" transform="matrix(1.00, 0.00, -0.00, -1.00, 273.2, 152.0)">I</text><text xml:space="preserve" font-family="GothamBold" font-weight="bold" font-size="130.0" fill="#FEFFFE" transform="matrix(1.00, 0.00, -0.00, -1.00, 319.8, 152.0)">G</text><text xml:space="preserve" font-family="GothamBold" font-weight="bold" font-size="130.0" fill="#FEFFFE" transform="matrix(1.00, 0.00, -0.00, -1.00, 424.6, 152.0)">H</text><text xml:space="preserve" font-family="GothamBold" font-weight="bold" font-size="130.0" fill="#FEFFFE" transform="matrix(1.00, 0.00, -0.00, -1.00, 526.3, 152.0)">T</text><text xml:space="preserve" font-family="GothamBold" font-weight="bold" font-size="130.0" fill="#FEFFFE" transform="matrix(1.00, 0.00, -0.00, -1.00, 613.5, 152.0)"> </text><text xml:space="preserve" font-family="GothamBold" font-weight="bold" font-size="130.0" fill="#FEFFFE" transform="matrix(1.00, 0.00, -0.00, -1.00, 655.4, 152.0)"> </text><text xml:space="preserve" font-family="GothamBold" font-weight="bold" font-size="130.0" fill="#FEFFFE" transform="matrix(1.00, 0.00, -0.00, -1.00, -9.0, 4.0)">D</text><text xml:space="preserve" font-family="GothamBold" font-weight="bold" font-size="130.0" fill="#FEFFFE" transform="matrix(1.00, 0.00, -0.00, -1.00, 95.6, 4.0)">E</text><text xml:space="preserve" font-family="GothamBold" font-weight="bold" font-size="130.0" fill="#FEFFFE" transform="matrix(1.00, 0.00, -0.00, -1.00, 185.6, 4.0)">A</text><text xml:space="preserve" font-family="GothamBold" font-weight="bold" font-size="130.0" fill="#FEFFFE" transform="matrix(1.00, 0.00, -0.00, -1.00, 291.2, 4.0)">D</text><text xml:space="preserve" font-family="GothamBold" font-weight="bold" font-size="130.0" fill="#FEFFFE" transform="matrix(1.00, 0.00, -0.00, -1.00, 395.8, 4.0)">L</text><text xml:space="preserve" font-family="GothamBold" font-weight="bold" font-size="130.0" fill="#FEFFFE" transform="matrix(1.00, 0.00, -0.00, -1.00, 479.2, 4.0)">I</text><text xml:space="preserve" font-family="GothamBold" font-weight="bold" font-size="130.0" fill="#FEFFFE" transform="matrix(1.00, 0.00, -0.00, -1.00, 525.8, 4.0)">N</text><text xml:space="preserve" font-family="GothamBold" font-weight="bold" font-size="130.0" fill="#FEFFFE" transform="matrix(1.00, 0.00, -0.00, -1.00, 631.4, 4.0)">E</text><text xml:space="preserve" font-family="GothamBold" font-weight="bold" font-size="130.0" fill="#FEFFFE" transform="matrix(1.00, 0.00, -0.00, -1.00, 721.5, 4.0)">S</text></g></svg>